/vscmnt/brussel_pixiu_data/_data_brussel/112/vsc11236/PredSimResults/SUBJ09opt3D/expIG/worker_12.mot
version=1
nRows=8
nColumns=50
inDegrees=yes
endheader
                time	         pelvis_tilt	         pelvis_list	     pelvis_rotation	           pelvis_tx	           pelvis_ty	           pelvis_tz	       hip_flexion_r	     hip_adduction_r	      hip_rotation_r	        knee_angle_r	       ankle_angle_r	         mtp_angle_r	       hip_flexion_l	     hip_adduction_l	      hip_rotation_l	        knee_angle_l	       ankle_angle_l	         mtp_angle_l	    lumbar_extension	      lumbar_bending	     lumbar_rotation	 ercspn_r/activation	 intobl_r/activation	 extobl_r/activation	    abd_r/activation	    add_r/activation	hamstrings_r/activation	bifemsh_r/activation	glut_max_r/activation	iliopsoas_r/activation	rect_fem_r/activation	  vasti_r/activation	gastroc_r/activation	 soleus_r/activation	tib_ant_r/activation	 ercspn_l/activation	 intobl_l/activation	 extobl_l/activation	    abd_l/activation	    add_l/activation	hamstrings_l/activation	bifemsh_l/activation	glut_max_l/activation	iliopsoas_l/activation	rect_fem_l/activation	  vasti_l/activation	gastroc_l/activation	 soleus_l/activation	tib_ant_l/activation	
          0.00000000	         -6.23997707	         -3.47183147	          9.64491473	          0.00000000	          0.97151468	         -0.00389813	         34.05182172	         -0.17970688	         -9.12725894	         -6.69630007	          6.85424324	          0.26027838	        -16.58373830	         -5.02625495	         -1.41524329	         -8.81621303	          0.72501587	         41.67730987	        -12.03082727	          2.71774534	         -8.11785492	          0.07432161	          0.13489463	          0.01624449	          0.02668077	          0.27812700	          0.11378960	          0.21816068	          0.07786060	          0.15282616	          0.01000000	          0.01000000	          0.02588576	          0.01000002	          0.40519378	          0.02934236	          0.01000003	          0.01000003	          0.02244808	          0.03585940	          0.02909949	          0.25440476	          0.01381884	          0.16390650	          0.01000000	          0.01000001	          0.34882386	          0.17344710	          0.01545110	
          0.01053216	         -6.18875520	         -3.62464192	          9.61429049	          0.02276283	          0.96903485	         -0.00340213	         34.05094891	          0.07400115	         -9.28249429	         -8.86585003	          6.16793026	          0.24192802	        -16.91230506	         -5.39626357	         -1.94141667	        -10.49114772	         -0.82030560	         43.48586097	        -11.52623217	          3.09116200	         -8.28458197	          0.06322360	          0.11475160	          0.01381879	          0.08517169	          0.34013736	          0.09679808	          0.18558401	          0.30619187	          0.13000551	          0.01000000	          0.01000000	          0.02202039	          0.01381888	          0.43244349	          0.08768950	          0.01000002	          0.01000000	          0.01909604	          0.10522569	          0.02475424	          0.21641598	          0.01175535	          0.33711878	          0.01000000	          0.01000000	          0.29673601	          0.14754725	          0.01314387	
          0.02106432	         -6.12296187	         -3.77512598	          9.53966708	          0.04556106	          0.96674356	         -0.00282759	         33.94744759	          0.33200614	         -9.33245381	        -11.07264528	          5.65234689	          0.21153622	        -16.89330371	         -5.77479174	         -2.48300458	        -12.82438365	         -2.30984221	         44.85283721	        -11.03457702	          3.46083709	         -8.40328167	          0.05378280	          0.09761640	          0.01175532	          0.20399233	          0.33094721	          0.08234378	          0.15787182	          0.39916482	          0.11059254	          0.01000000	          0.01000000	          0.01873221	          0.01175539	          0.51139342	          0.07459538	          0.00999999	          0.01000000	          0.01624454	          0.08951296	          0.02105783	          0.18409984	          0.01000000	          0.46412607	          0.01000000	          0.00999999	          0.25242614	          0.12551487	          0.01118118	
          0.03159648	         -6.04737289	         -3.91883475	          9.42033138	          0.06793964	          0.96495789	         -0.00213609	         33.87908488	          0.60682802	         -9.32750468	        -13.27330061	          4.95555663	          0.17743884	        -16.37804894	         -6.17221161	         -3.02901549	        -16.02710647	         -3.66231045	         45.39825507	        -10.61057988	          3.82307624	         -8.46840271	          0.07545521	          0.08303991	          0.01000000	          0.24169511	          0.34067191	          0.07004787	          0.13429774	          0.41467647	          0.09407840	          0.01000000	          0.11053696	          0.01593504	          0.01000003	          0.55917102	          0.13524393	          0.00999999	          0.01000000	          0.01381884	          0.09907886	          0.01791339	          0.15660928	          0.00999999	          0.39482096	          0.01000000	          0.00999999	          0.21473281	          0.10677246	          0.00999999	
          0.04212864	         -5.96418319	         -4.05530886	          9.26216860	          0.08972772	          0.96385388	         -0.00134684	         33.86259036	          0.89534748	         -9.26910587	        -15.55426186	          4.50376718	          0.11626519	        -15.33864828	         -6.60180677	         -3.56865783	        -20.06910687	         -5.08542376	         45.10909552	        -10.27050689	          4.17940145	         -8.48047639	          0.06418794	          0.07064004	          0.01000000	          0.27711365	          0.30763435	          0.05958804	          0.11424384	          0.42345695	          0.08003021	          0.01000001	          0.31302957	          0.01355556	          0.01000003	          0.58483770	          0.17325642	          0.00999999	          0.01000000	          0.01175535	          0.16050344	          0.01523849	          0.13322373	          0.00999999	          0.33586464	          0.01000000	          0.00999999	          0.18266800	          0.09082875	          0.00999999	
          0.05266080	         -5.88047371	         -4.16949218	          9.06096281	          0.11082741	          0.96361479	         -0.00049921	         33.75441573	          1.19782019	         -9.17627890	        -17.68132213	          4.48484105	          0.06144639	        -13.79432146	         -7.05246204	         -4.10355250	        -24.79996588	         -6.85069364	         43.96987130	        -10.02087587	          4.51472598	         -8.43441511	          0.05460313	          0.06009178	          0.01000000	          0.32091761	          0.27987584	          0.05857692	          0.09718447	          0.37165308	          0.06807977	          0.01000001	          0.41754262	          0.01153139	          0.01000000	          0.56912357	          0.16090536	          0.00999999	          0.01000000	          0.00999999	          0.19959993	          0.01296301	          0.11333020	          0.00999999	          0.28571192	          0.00999999	          0.00999999	          0.15539124	          0.07726582	          0.01000000	
          0.06319296	         -5.80265620	         -4.24427616	          8.81461828	          0.13115508	          0.96430787	          0.00036395	         33.46574216	          1.51294531	         -9.01347233	        -19.46989979	          4.82124684	          0.02595500	        -11.80018235	         -7.50887334	         -4.60372746	        -30.04354367	         -8.88220961	         41.55877501	         -9.86727234	          4.81280591	         -8.32685962	          0.04644956	          0.05111862	          0.01000000	          0.35293630	          0.29332667	          0.05890903	          0.08267248	          0.31615628	          0.05791381	          0.01000000	          0.42579568	          0.01000001	          0.01000000	          0.51580724	          0.17195668	          0.02575214	          0.01000003	          0.00999999	          0.19128091	          0.01102733	          0.09640726	          0.00999999	          0.24304821	          0.01000001	          0.00999999	          0.13218757	          0.06572816	          0.11263907	
          0.07372511	         -5.73291670	         -4.29379392	          8.53307335	          0.15066664	          0.96579745	          0.00118508	         33.00472290	          1.84399165	         -8.78655669	        -20.90895895	          5.43411092	          0.01121655	         -9.45559950	         -7.95091609	         -4.93032953	        -35.63931590	        -10.68479648	         37.28423474	         -9.80557024	          5.09238518	         -8.15826296	          0.03951352	          0.04348537	          0.01000000	          0.33119550	          0.24952607	          0.06023817	          0.07032748	          0.26894650	          0.04926587	          0.01000000	          0.46257992	          0.01000001	          0.01000000	          0.44516377	          0.20486253	          0.06459860	          0.04077937	          0.01175536	          0.16271804	          0.01000001	          0.08201134	          0.01000000	          0.20675523	          0.01000001	          0.00999999	          0.11244876	          0.05591335	          0.22617437	
